<?xml version="1.0" encoding="UTF-8" standalone="no"?>
<!-- Created with Inkscape (http://www.inkscape.org/) -->

<svg
   width="1000"
   height="1000"
   viewBox="0 0 264.58333 264.58333"
   version="1.1"
   id="svg1"
   inkscape:version="1.4.2 (ebf0e940d0, 2025-05-08)"
   sodipodi:docname="bocana-logo.svg"
   inkscape:export-filename="../web/bocana-logo.svg"
   inkscape:export-xdpi="96"
   inkscape:export-ydpi="96"
   xmlns:inkscape="http://www.inkscape.org/namespaces/inkscape"
   xmlns:sodipodi="http://sodipodi.sourceforge.net/DTD/sodipodi-0.dtd"
   xmlns="http://www.w3.org/2000/svg"
   xmlns:svg="http://www.w3.org/2000/svg">
  <sodipodi:namedview
     id="namedview1"
     pagecolor="#ffffff"
     bordercolor="#000000"
     borderopacity="0.25"
     inkscape:showpageshadow="2"
     inkscape:pageopacity="0.0"
     inkscape:pagecheckerboard="0"
     inkscape:deskcolor="#d1d1d1"
     inkscape:document-units="mm"
     showgrid="true"
     inkscape:zoom="0.40979236"
     inkscape:cx="1076.1548"
     inkscape:cy="675.95208"
     inkscape:window-width="1920"
     inkscape:window-height="1131"
     inkscape:window-x="0"
     inkscape:window-y="0"
     inkscape:window-maximized="1"
     inkscape:current-layer="g3">
    <inkscape:grid
       id="grid1"
       units="px"
       originx="0"
       originy="0"
       spacingx="2.6458333"
       spacingy="2.6458333"
       empcolor="#0099e5"
       empopacity="0.30196078"
       color="#0099e5"
       opacity="0.14901961"
       empspacing="10"
       enabled="true"
       visible="true" />
  </sodipodi:namedview>
  <defs
     id="defs1" />
  <g
     inkscape:label="Layer 1"
     inkscape:groupmode="layer"
     id="layer1">
    <g
       id="g3">
      <path
         id="rect3-6-0"
         style="fill:#f9f06b;stroke:none;stroke-width:7.9375;stroke-linecap:round;stroke-linejoin:round"
         d="m 132.2917,52.916666 c 6.23629,-6.23629 20.22204,-6.23629 26.45833,0 6.23628,6.23629 6.23628,20.22204 0,26.45833 -6.23629,6.23629 -20.22204,6.23629 -26.45833,0 -6.23629,-6.23629 -6.23629,-20.22204 0,-26.45833 z"
         sodipodi:nodetypes="sssss" />
      <path
         id="rect4-0-2"
         style="fill:#f8e45c;stroke:none;stroke-width:7.9375;stroke-linecap:round;stroke-linejoin:round"
         d="m 158.75001,79.375006 c 6.23629,-6.23629 20.22204,-6.23629 26.45833,0 6.23629,6.23629 6.23629,20.22205 0,26.458334 -6.23629,6.23629 -20.22204,6.23629 -26.45833,0 -6.23629,-6.236284 -6.23629,-20.222044 0,-26.458334 z"
         sodipodi:nodetypes="sssss" />
      <path
         id="rect5-5-3"
         style="fill:#f6d32d;stroke:none;stroke-width:7.9375;stroke-linecap:round;stroke-linejoin:round"
         d="m 132.2917,105.83335 c 0,0 20.22205,-6.236284 26.45834,0 12.47258,12.47258 12.47258,40.44409 0,52.91667 -6.23629,6.23629 -26.45834,0 -26.45834,0 z"
         sodipodi:nodetypes="csscc" />
      <path
         id="rect7-0-7"
         style="fill:#f5c211;stroke:none;stroke-width:7.9375;stroke-linecap:round;stroke-linejoin:round"
         d="m 158.75004,158.75005 c 6.23628,-6.23628 20.22203,-6.23628 26.45831,0 6.18232,6.18232 6.18232,20.04703 0,26.22935 -6.23628,6.23628 -20.22203,6.23628 -26.45831,0 -6.18232,-6.18232 -6.18232,-20.04703 0,-26.22935 z"
         sodipodi:nodetypes="sssss" />
      <path
         id="rect8-2-5"
         style="fill:#e5a50a;stroke:none;stroke-width:7.9375;stroke-linecap:round;stroke-linejoin:round"
         d="m 132.2917,185.20836 c 6.23629,-6.23629 20.22204,-6.23629 26.45833,0 6.23629,6.23629 6.23629,20.22204 0,26.45833 -6.23629,6.23629 -20.22204,6.23629 -26.45833,0 -6.23629,-6.23629 -6.23629,-20.22204 0,-26.45833 z"
         sodipodi:nodetypes="sssss" />
      <path
         id="rect9-9-9"
         style="fill:#1a5fb4;stroke:none;stroke-width:7.9375;stroke-linecap:round;stroke-linejoin:round"
         d="m 105.83333,158.75 c -6.236287,-6.23629 -26.458331,0 -26.458331,0 v 52.91666 c 0,0 20.222045,6.23629 26.458331,0 12.47257,-12.47258 12.47257,-40.44408 0,-52.91666 z"
         sodipodi:nodetypes="accaa" />
      <path
         id="rect9-9-9-7"
         style="fill:#1c71d8;stroke:none;stroke-width:7.9375;stroke-linecap:round;stroke-linejoin:round"
         d="m 105.83333,105.83334 c -6.236289,-6.236287 -26.458331,0 -26.458331,0 V 158.75 c 0,0 20.222043,6.23629 26.458331,0 12.47257,-12.47258 12.47257,-40.44408 0,-52.91666 z"
         sodipodi:nodetypes="accaa" />
      <path
         id="rect9-9-9-3"
         style="fill:#3584e4;stroke:none;stroke-width:7.9375;stroke-linecap:round;stroke-linejoin:round"
         d="m 105.83333,52.916667 c -6.236288,-6.236288 -26.458331,0 -26.458331,0 v 52.916663 c 0,0 20.222043,6.23629 26.458331,0 12.47257,-12.472576 12.47257,-40.444086 0,-52.916663 z"
         sodipodi:nodetypes="accaa" />
    </g>
  </g>
</svg>
