<?xml version="1.0" encoding="UTF-8" standalone="no"?>
<!-- Created with Inkscape (http://www.inkscape.org/) -->

<svg
   width="3500"
   height="1000"
   viewBox="0 0 926.04163 264.58333"
   version="1.1"
   id="svg1"
   inkscape:version="1.4.2 (ebf0e940d0, 2025-05-08)"
   sodipodi:docname="bocana-logo-con-wording.svg"
   inkscape:export-filename="../web/bocana-logo-con-wording.svg"
   inkscape:export-xdpi="96"
   inkscape:export-ydpi="96"
   xmlns:inkscape="http://www.inkscape.org/namespaces/inkscape"
   xmlns:sodipodi="http://sodipodi.sourceforge.net/DTD/sodipodi-0.dtd"
   xmlns="http://www.w3.org/2000/svg"
   xmlns:svg="http://www.w3.org/2000/svg">
  <sodipodi:namedview
     id="namedview1"
     pagecolor="#ffffff"
     bordercolor="#000000"
     borderopacity="0.25"
     inkscape:showpageshadow="2"
     inkscape:pageopacity="0.0"
     inkscape:pagecheckerboard="0"
     inkscape:deskcolor="#d1d1d1"
     inkscape:document-units="mm"
     showgrid="true"
     inkscape:zoom="0.28976696"
     inkscape:cx="1190.6119"
     inkscape:cy="110.43357"
     inkscape:window-width="1920"
     inkscape:window-height="1131"
     inkscape:window-x="0"
     inkscape:window-y="0"
     inkscape:window-maximized="1"
     inkscape:current-layer="layer1">
    <inkscape:grid
       id="grid1"
       units="px"
       originx="0"
       originy="0"
       spacingx="2.6458333"
       spacingy="2.6458333"
       empcolor="#0099e5"
       empopacity="0.30196078"
       color="#0099e5"
       opacity="0.14901961"
       empspacing="10"
       enabled="true"
       visible="true" />
  </sodipodi:namedview>
  <defs
     id="defs1" />
  <g
     inkscape:label="Inkscape"
     inkscape:groupmode="layer"
     id="layer1"
     style="display:inline">
    <text
       xml:space="preserve"
       style="font-style:normal;font-variant:normal;font-weight:600;font-stretch:normal;font-size:141.111px;font-family:'URW Gothic';-inkscape-font-specification:'URW Gothic, Semi-Bold';font-variant-ligatures:normal;font-variant-caps:normal;font-variant-numeric:normal;font-variant-east-asian:normal;text-align:start;writing-mode:lr-tb;direction:ltr;text-anchor:start;fill:#241f31;stroke:#241f31;stroke-width:7.9375;stroke-linecap:round;stroke-linejoin:round"
       x="268.10803"
       y="183.51494"
       id="text1-9"><tspan
         sodipodi:role="line"
         id="tspan1-2"
         style="font-style:normal;font-variant:normal;font-weight:600;font-stretch:normal;font-size:141.111px;font-family:'URW Gothic';-inkscape-font-specification:'URW Gothic, Semi-Bold';font-variant-ligatures:normal;font-variant-caps:normal;font-variant-numeric:normal;font-variant-east-asian:normal;stroke:none;stroke-width:7.9375"
         x="268.10803"
         y="183.51494">bocana</tspan></text>
    <path
       id="path1-3"
       style="fill:#f9f06b;stroke:none;stroke-width:7.9375;stroke-linecap:round;stroke-linejoin:round"
       d="m 158.75004,52.916666 c 6.23629,-6.23629 20.22204,-6.23629 26.45833,0 6.23628,6.23629 6.23628,20.22204 0,26.45833 -6.23629,6.23629 -20.22204,6.23629 -26.45833,0 -6.23629,-6.23629 -6.23629,-20.22204 0,-26.45833 z"
       sodipodi:nodetypes="sssss" />
    <path
       id="path2-5"
       style="fill:#f8e45c;stroke:none;stroke-width:7.9375;stroke-linecap:round;stroke-linejoin:round"
       d="m 185.20835,79.375006 c 6.23629,-6.23629 20.22204,-6.23629 26.45833,0 6.23629,6.23629 6.23629,20.22205 0,26.458334 -6.23629,6.23629 -20.22204,6.23629 -26.45833,0 -6.23629,-6.236284 -6.23629,-20.222044 0,-26.458334 z"
       sodipodi:nodetypes="sssss" />
    <path
       id="path3-6"
       style="fill:#f6d32d;stroke:none;stroke-width:7.9375;stroke-linecap:round;stroke-linejoin:round"
       d="m 158.75004,105.83335 c 0,0 20.22205,-6.236284 26.45834,0 12.47258,12.47258 12.47258,40.44409 0,52.91667 -6.23629,6.23629 -26.45834,0 -26.45834,0 z"
       sodipodi:nodetypes="csscc" />
    <path
       id="path4-2"
       style="fill:#f5c211;stroke:none;stroke-width:7.9375;stroke-linecap:round;stroke-linejoin:round"
       d="m 185.20838,158.75005 c 6.23628,-6.23628 20.22203,-6.23628 26.45831,0 6.18232,6.18232 6.18232,20.04703 0,26.22935 -6.23628,6.23628 -20.22203,6.23628 -26.45831,0 -6.18232,-6.18232 -6.18232,-20.04703 0,-26.22935 z"
       sodipodi:nodetypes="sssss" />
    <path
       id="path5-9"
       style="fill:#e5a50a;stroke:none;stroke-width:7.9375;stroke-linecap:round;stroke-linejoin:round"
       d="m 158.75004,185.20836 c 6.23629,-6.23629 20.22204,-6.23629 26.45833,0 6.23629,6.23629 6.23629,20.22204 0,26.45833 -6.23629,6.23629 -20.22204,6.23629 -26.45833,0 -6.23629,-6.23629 -6.23629,-20.22204 0,-26.45833 z"
       sodipodi:nodetypes="sssss" />
    <path
       id="path6-1"
       style="fill:#1a5fb4;stroke:none;stroke-width:7.9375;stroke-linecap:round;stroke-linejoin:round"
       d="m 132.29167,158.75 c -6.23629,-6.23629 -26.45833,0 -26.45833,0 v 52.91666 c 0,0 20.22204,6.23629 26.45833,0 12.47257,-12.47258 12.47257,-40.44408 0,-52.91666 z"
       sodipodi:nodetypes="accaa" />
    <path
       id="path7-2"
       style="fill:#1c71d8;stroke:none;stroke-width:7.9375;stroke-linecap:round;stroke-linejoin:round"
       d="m 132.29167,105.83334 c -6.23629,-6.236294 -26.45833,0 -26.45833,0 V 158.75 c 0,0 20.22204,6.23629 26.45833,0 12.47257,-12.47258 12.47257,-40.44408 0,-52.91666 z"
       sodipodi:nodetypes="accaa" />
    <path
       id="path8-7"
       style="fill:#3584e4;stroke:none;stroke-width:7.9375;stroke-linecap:round;stroke-linejoin:round"
       d="m 132.29167,52.916666 c -6.23629,-6.23629 -26.45833,0 -26.45833,0 v 52.916664 c 0,0 20.22204,6.23629 26.45833,0 12.47257,-12.472584 12.47257,-40.444094 0,-52.916664 z"
       sodipodi:nodetypes="accaa" />
  </g>
  <g
     inkscape:label="Web"
     inkscape:groupmode="layer"
     id="g9"
     style="display:none">
    <g
       id="g8">
      <path
         style="font-weight:600;font-size:141.111px;font-family:'URW Gothic';-inkscape-font-specification:'URW Gothic, Semi-Bold';fill:#241f31;stroke-width:7.9375;stroke-linecap:round;stroke-linejoin:round"
         d="m 275.72803,183.51494 h 17.21554 v -10.01888 c 8.04332,8.60777 15.52221,11.85332 27.09331,11.85332 12.13554,0 21.73109,-4.51555 28.92775,-13.68777 5.92666,-7.61999 9.17222,-17.35665 9.17222,-27.79886 0,-23.70665 -16.79221,-41.34552 -39.36997,-41.34552 -10.3011,0 -16.93332,2.82222 -24.27109,10.01888 V 79.233915 h -18.76776 z m 40.35774,-63.78217 c 13.40554,0 23.1422,10.15999 23.1422,24.27109 0,14.39332 -9.31332,24.12998 -22.71887,24.12998 -13.68776,0 -23.1422,-10.01888 -23.1422,-24.27109 0,-14.1111 9.45444,-24.12998 22.71887,-24.12998 z m 90.73434,-16.22776 c -22.71886,0 -41.34552,18.48554 -41.34552,40.92218 0,22.57776 18.62666,40.92219 41.48664,40.92219 22.71887,0 41.62774,-18.34443 41.62774,-40.35774 0,-23.28332 -18.20332,-41.48663 -41.76886,-41.48663 z m 0.14112,17.21554 c 12.55887,0 22.71887,10.58332 22.71887,23.70664 0,13.12333 -10.16,23.70665 -22.57776,23.70665 -12.69999,0 -22.71887,-10.58332 -22.71887,-23.98887 0,-12.8411 10.15999,-23.42442 22.57776,-23.42442 z m 108.23204,37.11219 c -4.65666,7.19666 -10.01888,10.3011 -17.77998,10.3011 -12.98221,0 -22.71887,-10.15999 -22.71887,-23.84776 0,-13.82887 9.17221,-23.56553 22.29554,-23.56553 8.46665,0 14.39332,3.52777 18.20331,10.72443 h 21.16665 c -2.68111,-7.90221 -5.2211,-11.99443 -10.58332,-16.93332 -7.62,-7.05555 -17.9211,-11.00665 -28.78664,-11.00665 -23.14221,0 -41.20441,17.92109 -41.20441,40.92218 0,22.71887 18.62665,40.92219 41.76885,40.92219 18.34443,0 32.31442,-10.01888 38.80552,-27.51664 z M 626.52984,105.33945 H 609.3143 v 10.44221 c -6.4911,-8.60777 -14.25221,-12.27665 -25.54109,-12.27665 -23.1422,0 -39.7933,17.35665 -39.7933,41.20441 0,23.56553 16.50999,40.63996 39.36997,40.63996 11.00666,0 18.48554,-3.38666 25.96442,-11.99443 v 10.15999 h 17.21554 z m -40.78107,15.3811 c 13.40554,0 23.00109,10.01888 23.00109,24.27109 0,5.64444 -2.25778,12.13554 -5.64444,16.08665 -3.81,4.65666 -9.87777,7.05555 -17.07443,7.05555 -13.68777,0 -23.14221,-9.31333 -23.14221,-23.00109 0,-14.25221 9.45444,-24.4122 22.85999,-24.4122 z m 54.75105,62.79439 h 18.76776 v -36.82997 c 0,-10.44221 0.70555,-14.95777 3.10444,-18.76776 2.96333,-4.65667 7.7611,-7.19666 13.82888,-7.19666 4.93888,0 8.74888,1.69333 11.28888,4.93888 2.53999,3.38667 3.66888,9.17222 3.66888,19.61443 v 38.24108 h 18.76776 v -41.90997 c 0,-13.96998 -1.41111,-20.74331 -5.64444,-26.81108 -5.07999,-7.33778 -13.54665,-11.28888 -24.4122,-11.28888 -9.0311,0 -15.09887,2.53999 -22.01331,9.31332 v -7.47888 h -17.35665 z m 163.82989,-78.17549 h -17.21554 v 10.44221 c -6.49111,-8.60777 -14.25221,-12.27665 -25.54109,-12.27665 -23.14221,0 -39.7933,17.35665 -39.7933,41.20441 0,23.56553 16.50998,40.63996 39.36996,40.63996 11.00666,0 18.48554,-3.38666 25.96443,-11.99443 v 10.15999 h 17.21554 z m -40.78108,15.3811 c 13.40555,0 23.00109,10.01888 23.00109,24.27109 0,5.64444 -2.25777,12.13554 -5.64444,16.08665 -3.80999,4.65666 -9.87777,7.05555 -17.07443,7.05555 -13.68776,0 -23.1422,-9.31333 -23.1422,-23.00109 0,-14.25221 9.45444,-24.4122 22.85998,-24.4122 z"
         id="text1"
         aria-label="bocana" />
      <path
         id="path1"
         style="fill:#f9f06b;stroke:none;stroke-width:7.9375;stroke-linecap:round;stroke-linejoin:round"
         d="m 158.75003,52.916664 c 6.23629,-6.23629 20.22204,-6.23629 26.45833,0 6.23628,6.23629 6.23628,20.22204 0,26.45833 -6.23629,6.23629 -20.22204,6.23629 -26.45833,0 -6.23629,-6.23629 -6.23629,-20.22204 0,-26.45833 z"
         sodipodi:nodetypes="sssss" />
      <path
         id="path2"
         style="fill:#f8e45c;stroke:none;stroke-width:7.9375;stroke-linecap:round;stroke-linejoin:round"
         d="m 185.20834,79.375004 c 6.23629,-6.23629 20.22204,-6.23629 26.45833,0 6.23629,6.23629 6.23629,20.22205 0,26.458326 -6.23629,6.23629 -20.22204,6.23629 -26.45833,0 -6.23629,-6.236276 -6.23629,-20.222036 0,-26.458326 z"
         sodipodi:nodetypes="sssss" />
      <path
         id="path3"
         style="fill:#f6d32d;stroke:none;stroke-width:7.9375;stroke-linecap:round;stroke-linejoin:round"
         d="m 158.75003,105.83334 c 0,0 20.22205,-6.236276 26.45834,0 12.47258,12.47258 12.47258,40.44409 0,52.91667 -6.23629,6.23629 -26.45834,0 -26.45834,0 z"
         sodipodi:nodetypes="csscc" />
      <path
         id="path4"
         style="fill:#f5c211;stroke:none;stroke-width:7.9375;stroke-linecap:round;stroke-linejoin:round"
         d="m 185.20837,158.75004 c 6.23628,-6.23628 20.22203,-6.23628 26.45831,0 6.18232,6.18232 6.18232,20.04703 0,26.22935 -6.23628,6.23628 -20.22203,6.23628 -26.45831,0 -6.18232,-6.18232 -6.18232,-20.04703 0,-26.22935 z"
         sodipodi:nodetypes="sssss" />
      <path
         id="path5"
         style="fill:#e5a50a;stroke:none;stroke-width:7.9375;stroke-linecap:round;stroke-linejoin:round"
         d="m 158.75003,185.20835 c 6.23629,-6.23629 20.22204,-6.23629 26.45833,0 6.23629,6.23629 6.23629,20.22204 0,26.45833 -6.23629,6.23629 -20.22204,6.23629 -26.45833,0 -6.23629,-6.23629 -6.23629,-20.22204 0,-26.45833 z"
         sodipodi:nodetypes="sssss" />
      <path
         id="path6"
         style="fill:#1a5fb4;stroke:none;stroke-width:7.9375;stroke-linecap:round;stroke-linejoin:round"
         d="m 132.29166,158.74999 c -6.23629,-6.23629 -26.45833,0 -26.45833,0 v 52.91666 c 0,0 20.22204,6.23629 26.45833,0 12.47257,-12.47258 12.47257,-40.44408 0,-52.91666 z"
         sodipodi:nodetypes="accaa" />
      <path
         id="path7"
         style="fill:#1c71d8;stroke:none;stroke-width:7.9375;stroke-linecap:round;stroke-linejoin:round"
         d="m 132.29166,105.83333 c -6.23629,-6.236286 -26.45833,0 -26.45833,0 v 52.91666 c 0,0 20.22204,6.23629 26.45833,0 12.47257,-12.47258 12.47257,-40.44408 0,-52.91666 z"
         sodipodi:nodetypes="accaa" />
      <path
         id="path8"
         style="fill:#3584e4;stroke:none;stroke-width:7.9375;stroke-linecap:round;stroke-linejoin:round"
         d="m 132.29166,52.916664 c -6.23629,-6.23629 -26.45833,0 -26.45833,0 v 52.916656 c 0,0 20.22204,6.23629 26.45833,0 12.47257,-12.472576 12.47257,-40.444086 0,-52.916656 z"
         sodipodi:nodetypes="accaa" />
    </g>
  </g>
</svg>
